<?xml version="1.0" encoding="UTF-8" standalone="no" ?>
<!DOCTYPE svg PUBLIC "-//W3C//DTD SVG 1.1//EN" "http://www.w3.org/Graphics/SVG/1.1/DTD/svg11.dtd">
<svg xmlns="http://www.w3.org/2000/svg" xmlns:xlink="http://www.w3.org/1999/xlink" version="1.1" width="500" height="500" viewBox="0 0 500 500" xml:space="preserve">
<!-- Created with SVG Stack Editor - https://svgstack.com -->
<defs>
</defs>
<rect x="0" y="0" width="100%" height="100%" fill="transparent"></rect>
<g transform="matrix(1 0 0 1 250 250)"  >
<g style=""   >
		<g transform="matrix(1 0 0 1 62.11 0.03)" id="path_0"  >
<path style="stroke: none; stroke-width: 1; stroke-dasharray: none; stroke-linecap: butt; stroke-dashoffset: 0; stroke-linejoin: miter; stroke-miterlimit: 4; fill: rgb(255,255,255); fill-rule: nonzero; opacity: 1;"  transform=" translate(-358.26, -89.86)" d="M 292.017 67.3663 L 295.836 67.3663 L 295.836 75.234 L 290.893 75.234 C 287.018 75.234 284.131 76.1666 282.219 78.0317 C 280.313 79.897 279.357 82.9577 279.357 87.2138 L 279.357 113.001 L 271.552 113.001 L 271.552 67.5416 L 279.357 67.5416 L 279.357 74.7958 C 279.357 75.2027 279.562 75.4092 279.966 75.4092 C 280.194 75.4092 280.368 75.3528 280.487 75.234 C 280.604 75.1151 280.717 74.8835 280.834 74.533 C 282.337 69.7572 286.068 67.3663 292.023 67.3663 L 292.017 67.3663 Z M 342.998 77.1117 C 345.047 80.7545 346.078 85.1421 346.078 90.2682 C 346.078 95.3945 345.053 99.7821 342.998 103.425 C 340.943 107.068 338.286 109.79 335.019 111.599 C 331.753 113.408 328.239 114.309 324.483 114.309 C 317.082 114.309 311.879 111.336 308.874 105.39 C 308.644 104.927 308.352 104.689 308.004 104.689 C 307.657 104.689 307.483 104.864 307.483 105.215 L 307.483 129.607 L 299.678 129.607 L 299.678 67.5416 L 307.483 67.5416 L 307.483 75.3216 C 307.483 75.6721 307.657 75.8473 308.004 75.8473 C 308.352 75.8473 308.638 75.6157 308.874 75.1463 C 311.879 69.2002 317.082 66.2271 324.483 66.2271 C 328.239 66.2271 331.753 67.1285 335.019 68.9373 C 338.286 70.7462 340.943 73.4688 342.998 77.1117 Z M 338.273 90.2682 C 338.273 84.9042 336.846 80.7232 333.983 77.7251 C 331.121 74.727 327.352 73.2248 322.664 73.2248 C 317.976 73.2248 314.207 74.727 311.344 77.7251 C 308.483 80.7295 307.433 84.9105 307.433 90.2682 C 307.433 95.6261 308.483 99.8133 311.344 102.811 C 314.207 105.816 317.982 107.312 322.664 107.312 C 327.346 107.312 331.121 105.81 333.983 102.811 C 336.846 99.8133 338.273 95.6261 338.273 90.2682 Z M 214.038 77.1806 C 216.088 80.8233 217.118 85.211 217.118 90.3371 C 217.118 95.4633 216.094 99.851 214.038 103.494 C 211.983 107.136 209.326 109.859 206.061 111.668 C 202.794 113.477 199.279 114.378 195.523 114.378 C 188.123 114.378 182.919 111.405 179.914 105.459 C 179.684 104.996 179.393 104.758 179.046 104.758 C 178.697 104.758 178.523 104.933 178.523 105.284 L 178.523 129.675 L 170.725 129.675 L 170.725 67.6103 L 178.529 67.6103 L 178.529 75.3905 C 178.529 75.741 178.703 75.9162 179.052 75.9162 C 179.399 75.9162 179.684 75.6846 179.921 75.2152 C 182.926 69.2691 188.128 66.296 195.529 66.296 C 199.286 66.296 202.801 67.1973 206.067 69.0062 C 209.332 70.8151 211.983 73.5377 214.038 77.1806 Z M 209.313 90.3371 C 209.313 84.9731 207.886 80.792 205.023 77.794 C 202.161 74.7958 198.392 73.2936 193.704 73.2936 C 189.017 73.2936 185.248 74.7958 182.386 77.794 C 179.523 80.7983 178.474 84.9793 178.474 90.3371 C 178.474 95.6948 179.523 99.8822 182.386 102.88 C 185.248 105.885 189.017 107.381 193.704 107.381 C 198.392 107.381 202.161 105.878 205.023 102.88 C 207.886 99.8822 209.313 95.6948 209.313 90.3371 Z M 257.184 98.5678 L 265.423 98.5678 C 264.324 102.824 262.083 106.511 258.706 109.628 C 255.322 112.745 250.479 114.303 244.177 114.303 C 239.433 114.303 235.261 113.327 231.647 111.374 C 228.033 109.421 225.246 106.642 223.277 103.024 C 221.309 99.4128 220.328 95.1566 220.328 90.262 C 220.328 85.3675 221.284 81.1112 223.191 77.4997 C 225.097 73.8882 227.773 71.103 231.213 69.1501 C 234.652 67.1973 238.682 66.2208 243.308 66.2208 C 247.933 66.2208 251.764 67.1848 254.974 69.1063 C 258.184 71.0278 260.581 73.5816 262.171 76.755 C 263.759 79.9346 264.554 83.4146 264.554 87.2013 L 264.554 92.4465 L 228.568 92.4465 C 228.853 96.9906 230.374 100.608 233.118 103.287 C 235.863 105.966 239.551 107.312 244.177 107.312 C 247.933 107.312 250.814 106.542 252.807 104.996 C 254.801 103.45 256.259 101.309 257.184 98.5678 Z M 228.654 85.8932 L 255.887 85.8932 C 255.887 81.9312 254.874 78.8267 252.851 76.5797 C 250.827 74.339 247.648 73.2123 243.313 73.2123 C 239.266 73.2123 235.956 74.3076 233.386 76.4921 C 230.816 78.6765 229.238 81.8122 228.661 85.887 L 228.654 85.8932 Z M 352.256 112.995 L 360.061 112.995 L 360.061 50.0537 L 352.256 50.0537 L 352.256 113.001 L 352.256 112.995 Z M 460.546 62.5781 L 469.661 62.5781 L 469.661 52.7388 L 460.546 52.7388 L 460.546 62.5781 Z M 492.702 106.223 C 491.286 106.367 490.429 106.442 490.143 106.442 C 489.739 106.442 489.417 106.323 489.187 106.091 C 488.958 105.86 488.839 105.54 488.839 105.127 C 488.839 104.839 488.914 103.976 489.057 102.549 C 489.199 101.121 489.274 98.9183 489.274 95.9515 L 489.274 74.2012 L 500.407 74.2012 L 498.216 67.5416 L 489.281 67.5416 L 489.281 55.2988 L 481.476 55.2988 L 481.476 67.5353 L 472.988 67.5353 L 472.988 74.195 L 481.476 74.195 L 481.476 98.1297 C 481.476 103.143 482.693 106.874 485.121 109.321 C 487.548 111.768 491.248 112.995 496.222 112.995 L 502.294 112.995 L 502.294 106.004 L 499.258 106.004 C 496.309 106.004 494.123 106.079 492.708 106.223 L 492.702 106.223 Z M 538.368 67.5353 L 525.448 105.678 C 525.273 106.148 525.001 106.761 524.113 106.761 C 523.224 106.761 522.952 106.148 522.778 105.678 L 509.857 67.5353 L 501.897 67.5353 L 516.861 112.995 L 522.151 112.995 C 522.498 112.995 522.759 113.026 522.933 113.083 C 523.107 113.139 523.249 113.283 523.368 113.521 C 523.597 113.871 523.566 114.397 523.281 115.092 L 520.853 121.733 C 520.506 122.609 519.841 123.047 518.859 123.047 C 518.512 123.047 517.706 122.972 516.432 122.828 C 515.159 122.684 513.514 122.609 511.489 122.609 L 505.157 122.609 L 505.157 129.6 L 513.483 129.6 C 518.338 129.6 521.263 128.768 523.777 127.109 C 526.292 125.451 528.242 122.521 529.632 118.321 L 545.794 69.2753 L 545.794 67.5291 L 538.368 67.5291 L 538.368 67.5353 Z M 435.052 84.4973 L 422.827 67.5353 L 414.239 67.5353 L 414.239 69.2816 L 428.892 88.9538 L 411.029 111.249 L 411.029 112.995 L 419.791 112.995 L 434.014 94.7247 L 447.283 112.995 L 455.697 112.995 L 455.697 111.249 L 440.174 90.2682 L 457.001 69.3755 L 457.001 67.5416 L 448.239 67.5416 L 435.058 84.5037 L 435.052 84.4973 Z M 461.378 112.995 L 469.182 112.995 L 469.182 67.5416 L 461.378 67.5416 L 461.378 113.001 L 461.378 112.995 Z M 411.383 98.5678 C 410.284 102.824 408.043 106.511 404.666 109.628 C 401.282 112.745 396.438 114.303 390.137 114.303 C 385.393 114.303 381.221 113.327 377.607 111.374 C 373.993 109.421 371.206 106.642 369.237 103.024 C 367.269 99.4128 366.288 95.1566 366.288 90.262 C 366.288 85.3675 367.244 81.1112 369.151 77.4997 C 371.057 73.8882 373.732 71.103 377.172 69.1501 C 380.612 67.1973 384.642 66.2208 389.267 66.2208 C 393.893 66.2208 397.723 67.1848 400.933 69.1063 C 404.143 71.0278 406.541 73.5816 408.129 76.755 C 409.719 79.9346 410.514 83.4146 410.514 87.2013 L 410.514 92.4465 L 374.527 92.4465 C 374.813 96.9906 376.334 100.608 379.078 103.287 C 381.823 105.966 385.511 107.312 390.137 107.312 C 393.893 107.312 396.773 106.542 398.767 104.996 C 400.759 103.45 402.219 101.309 403.144 98.5678 L 411.383 98.5678 Z M 374.614 85.8932 L 401.847 85.8932 C 401.847 81.9312 400.834 78.8267 398.811 76.5797 C 396.786 74.339 393.607 73.2123 389.273 73.2123 C 385.226 73.2123 381.916 74.3076 379.346 76.4921 C 376.774 78.6765 375.198 81.8122 374.621 85.887 L 374.614 85.8932 Z" stroke-linecap="round" />
</g>
		<g transform="matrix(1 0 0 1 -201.5 0)" id="path_1"  >
<path style="stroke: none; stroke-width: 1; stroke-dasharray: none; stroke-linecap: butt; stroke-dashoffset: 0; stroke-linejoin: miter; stroke-miterlimit: 4; fill: rgb(33,184,205); fill-rule: evenodd; opacity: 1;"  transform=" translate(-94.64, -89.84)" d="M 129.331 34.1353 L 129.331 67.5018 L 142.784 67.5018 L 142.784 115.551 L 129.331 115.551 L 129.331 145.535 L 97.0441 116.746 L 97.0441 145.316 L 92.0443 145.316 L 92.0443 116.746 L 59.7572 145.535 L 59.7572 115.551 L 46.5015 115.551 L 46.5015 67.5018 L 59.7571 67.5018 L 59.7571 34.1353 L 92.0443 64.2513 L 92.0443 35.0027 L 97.0441 35.0027 L 97.0441 64.2513 L 129.331 34.1353 Z M 88.1989 67.5018 L 64.757 45.6361 L 64.757 67.5015 L 88.1989 67.5018 Z M 88.1311 72.5017 L 51.5013 72.5017 L 51.5013 110.551 L 59.75 110.551 L 59.75 98.5927 L 88.1311 72.5017 Z M 64.757 100.788 L 64.757 134.378 L 92.0443 110.047 L 92.0443 75.6966 L 64.757 100.788 Z M 97.0441 110.047 L 124.331 134.378 L 124.331 100.788 L 97.0441 75.6966 L 97.0441 110.047 Z M 129.331 110.551 L 137.784 110.551 L 137.784 72.5017 L 100.956 72.5017 L 129.331 98.5928 L 129.331 110.551 Z M 100.889 67.5018 L 124.331 45.6362 L 124.331 67.5015 L 100.889 67.5018 Z" stroke-linecap="round" />
</g>
</g>
</g>
<g transform="matrix(1 0 0 1 250 250)"  >
<g style=""   >
		<g transform="matrix(1 0 0 1 62.11 0.03)" id="path_0"  >
<path style="stroke: none; stroke-width: 1; stroke-dasharray: none; stroke-linecap: butt; stroke-dashoffset: 0; stroke-linejoin: miter; stroke-miterlimit: 4; fill: rgb(255,255,255); fill-rule: nonzero; opacity: 1;"  transform=" translate(-358.26, -89.86)" d="M 292.017 67.3663 L 295.836 67.3663 L 295.836 75.234 L 290.893 75.234 C 287.018 75.234 284.131 76.1666 282.219 78.0317 C 280.313 79.897 279.357 82.9577 279.357 87.2138 L 279.357 113.001 L 271.552 113.001 L 271.552 67.5416 L 279.357 67.5416 L 279.357 74.7958 C 279.357 75.2027 279.562 75.4092 279.966 75.4092 C 280.194 75.4092 280.368 75.3528 280.487 75.234 C 280.604 75.1151 280.717 74.8835 280.834 74.533 C 282.337 69.7572 286.068 67.3663 292.023 67.3663 L 292.017 67.3663 Z M 342.998 77.1117 C 345.047 80.7545 346.078 85.1421 346.078 90.2682 C 346.078 95.3945 345.053 99.7821 342.998 103.425 C 340.943 107.068 338.286 109.79 335.019 111.599 C 331.753 113.408 328.239 114.309 324.483 114.309 C 317.082 114.309 311.879 111.336 308.874 105.39 C 308.644 104.927 308.352 104.689 308.004 104.689 C 307.657 104.689 307.483 104.864 307.483 105.215 L 307.483 129.607 L 299.678 129.607 L 299.678 67.5416 L 307.483 67.5416 L 307.483 75.3216 C 307.483 75.6721 307.657 75.8473 308.004 75.8473 C 308.352 75.8473 308.638 75.6157 308.874 75.1463 C 311.879 69.2002 317.082 66.2271 324.483 66.2271 C 328.239 66.2271 331.753 67.1285 335.019 68.9373 C 338.286 70.7462 340.943 73.4688 342.998 77.1117 Z M 338.273 90.2682 C 338.273 84.9042 336.846 80.7232 333.983 77.7251 C 331.121 74.727 327.352 73.2248 322.664 73.2248 C 317.976 73.2248 314.207 74.727 311.344 77.7251 C 308.483 80.7295 307.433 84.9105 307.433 90.2682 C 307.433 95.6261 308.483 99.8133 311.344 102.811 C 314.207 105.816 317.982 107.312 322.664 107.312 C 327.346 107.312 331.121 105.81 333.983 102.811 C 336.846 99.8133 338.273 95.6261 338.273 90.2682 Z M 214.038 77.1806 C 216.088 80.8233 217.118 85.211 217.118 90.3371 C 217.118 95.4633 216.094 99.851 214.038 103.494 C 211.983 107.136 209.326 109.859 206.061 111.668 C 202.794 113.477 199.279 114.378 195.523 114.378 C 188.123 114.378 182.919 111.405 179.914 105.459 C 179.684 104.996 179.393 104.758 179.046 104.758 C 178.697 104.758 178.523 104.933 178.523 105.284 L 178.523 129.675 L 170.725 129.675 L 170.725 67.6103 L 178.529 67.6103 L 178.529 75.3905 C 178.529 75.741 178.703 75.9162 179.052 75.9162 C 179.399 75.9162 179.684 75.6846 179.921 75.2152 C 182.926 69.2691 188.128 66.296 195.529 66.296 C 199.286 66.296 202.801 67.1973 206.067 69.0062 C 209.332 70.8151 211.983 73.5377 214.038 77.1806 Z M 209.313 90.3371 C 209.313 84.9731 207.886 80.792 205.023 77.794 C 202.161 74.7958 198.392 73.2936 193.704 73.2936 C 189.017 73.2936 185.248 74.7958 182.386 77.794 C 179.523 80.7983 178.474 84.9793 178.474 90.3371 C 178.474 95.6948 179.523 99.8822 182.386 102.88 C 185.248 105.885 189.017 107.381 193.704 107.381 C 198.392 107.381 202.161 105.878 205.023 102.88 C 207.886 99.8822 209.313 95.6948 209.313 90.3371 Z M 257.184 98.5678 L 265.423 98.5678 C 264.324 102.824 262.083 106.511 258.706 109.628 C 255.322 112.745 250.479 114.303 244.177 114.303 C 239.433 114.303 235.261 113.327 231.647 111.374 C 228.033 109.421 225.246 106.642 223.277 103.024 C 221.309 99.4128 220.328 95.1566 220.328 90.262 C 220.328 85.3675 221.284 81.1112 223.191 77.4997 C 225.097 73.8882 227.773 71.103 231.213 69.1501 C 234.652 67.1973 238.682 66.2208 243.308 66.2208 C 247.933 66.2208 251.764 67.1848 254.974 69.1063 C 258.184 71.0278 260.581 73.5816 262.171 76.755 C 263.759 79.9346 264.554 83.4146 264.554 87.2013 L 264.554 92.4465 L 228.568 92.4465 C 228.853 96.9906 230.374 100.608 233.118 103.287 C 235.863 105.966 239.551 107.312 244.177 107.312 C 247.933 107.312 250.814 106.542 252.807 104.996 C 254.801 103.45 256.259 101.309 257.184 98.5678 Z M 228.654 85.8932 L 255.887 85.8932 C 255.887 81.9312 254.874 78.8267 252.851 76.5797 C 250.827 74.339 247.648 73.2123 243.313 73.2123 C 239.266 73.2123 235.956 74.3076 233.386 76.4921 C 230.816 78.6765 229.238 81.8122 228.661 85.887 L 228.654 85.8932 Z M 352.256 112.995 L 360.061 112.995 L 360.061 50.0537 L 352.256 50.0537 L 352.256 113.001 L 352.256 112.995 Z M 460.546 62.5781 L 469.661 62.5781 L 469.661 52.7388 L 460.546 52.7388 L 460.546 62.5781 Z M 492.702 106.223 C 491.286 106.367 490.429 106.442 490.143 106.442 C 489.739 106.442 489.417 106.323 489.187 106.091 C 488.958 105.86 488.839 105.54 488.839 105.127 C 488.839 104.839 488.914 103.976 489.057 102.549 C 489.199 101.121 489.274 98.9183 489.274 95.9515 L 489.274 74.2012 L 500.407 74.2012 L 498.216 67.5416 L 489.281 67.5416 L 489.281 55.2988 L 481.476 55.2988 L 481.476 67.5353 L 472.988 67.5353 L 472.988 74.195 L 481.476 74.195 L 481.476 98.1297 C 481.476 103.143 482.693 106.874 485.121 109.321 C 487.548 111.768 491.248 112.995 496.222 112.995 L 502.294 112.995 L 502.294 106.004 L 499.258 106.004 C 496.309 106.004 494.123 106.079 492.708 106.223 L 492.702 106.223 Z M 538.368 67.5353 L 525.448 105.678 C 525.273 106.148 525.001 106.761 524.113 106.761 C 523.224 106.761 522.952 106.148 522.778 105.678 L 509.857 67.5353 L 501.897 67.5353 L 516.861 112.995 L 522.151 112.995 C 522.498 112.995 522.759 113.026 522.933 113.083 C 523.107 113.139 523.249 113.283 523.368 113.521 C 523.597 113.871 523.566 114.397 523.281 115.092 L 520.853 121.733 C 520.506 122.609 519.841 123.047 518.859 123.047 C 518.512 123.047 517.706 122.972 516.432 122.828 C 515.159 122.684 513.514 122.609 511.489 122.609 L 505.157 122.609 L 505.157 129.6 L 513.483 129.6 C 518.338 129.6 521.263 128.768 523.777 127.109 C 526.292 125.451 528.242 122.521 529.632 118.321 L 545.794 69.2753 L 545.794 67.5291 L 538.368 67.5291 L 538.368 67.5353 Z M 435.052 84.4973 L 422.827 67.5353 L 414.239 67.5353 L 414.239 69.2816 L 428.892 88.9538 L 411.029 111.249 L 411.029 112.995 L 419.791 112.995 L 434.014 94.7247 L 447.283 112.995 L 455.697 112.995 L 455.697 111.249 L 440.174 90.2682 L 457.001 69.3755 L 457.001 67.5416 L 448.239 67.5416 L 435.058 84.5037 L 435.052 84.4973 Z M 461.378 112.995 L 469.182 112.995 L 469.182 67.5416 L 461.378 67.5416 L 461.378 113.001 L 461.378 112.995 Z M 411.383 98.5678 C 410.284 102.824 408.043 106.511 404.666 109.628 C 401.282 112.745 396.438 114.303 390.137 114.303 C 385.393 114.303 381.221 113.327 377.607 111.374 C 373.993 109.421 371.206 106.642 369.237 103.024 C 367.269 99.4128 366.288 95.1566 366.288 90.262 C 366.288 85.3675 367.244 81.1112 369.151 77.4997 C 371.057 73.8882 373.732 71.103 377.172 69.1501 C 380.612 67.1973 384.642 66.2208 389.267 66.2208 C 393.893 66.2208 397.723 67.1848 400.933 69.1063 C 404.143 71.0278 406.541 73.5816 408.129 76.755 C 409.719 79.9346 410.514 83.4146 410.514 87.2013 L 410.514 92.4465 L 374.527 92.4465 C 374.813 96.9906 376.334 100.608 379.078 103.287 C 381.823 105.966 385.511 107.312 390.137 107.312 C 393.893 107.312 396.773 106.542 398.767 104.996 C 400.759 103.45 402.219 101.309 403.144 98.5678 L 411.383 98.5678 Z M 374.614 85.8932 L 401.847 85.8932 C 401.847 81.9312 400.834 78.8267 398.811 76.5797 C 396.786 74.339 393.607 73.2123 389.273 73.2123 C 385.226 73.2123 381.916 74.3076 379.346 76.4921 C 376.774 78.6765 375.198 81.8122 374.621 85.887 L 374.614 85.8932 Z" stroke-linecap="round" />
</g>
		<g transform="matrix(1 0 0 1 -201.5 0)" id="path_1"  >
<path style="stroke: none; stroke-width: 1; stroke-dasharray: none; stroke-linecap: butt; stroke-dashoffset: 0; stroke-linejoin: miter; stroke-miterlimit: 4; fill: rgb(33,184,205); fill-rule: evenodd; opacity: 1;"  transform=" translate(-94.64, -89.84)" d="M 129.331 34.1353 L 129.331 67.5018 L 142.784 67.5018 L 142.784 115.551 L 129.331 115.551 L 129.331 145.535 L 97.0441 116.746 L 97.0441 145.316 L 92.0443 145.316 L 92.0443 116.746 L 59.7572 145.535 L 59.7572 115.551 L 46.5015 115.551 L 46.5015 67.5018 L 59.7571 67.5018 L 59.7571 34.1353 L 92.0443 64.2513 L 92.0443 35.0027 L 97.0441 35.0027 L 97.0441 64.2513 L 129.331 34.1353 Z M 88.1989 67.5018 L 64.757 45.6361 L 64.757 67.5015 L 88.1989 67.5018 Z M 88.1311 72.5017 L 51.5013 72.5017 L 51.5013 110.551 L 59.75 110.551 L 59.75 98.5927 L 88.1311 72.5017 Z M 64.757 100.788 L 64.757 134.378 L 92.0443 110.047 L 92.0443 75.6966 L 64.757 100.788 Z M 97.0441 110.047 L 124.331 134.378 L 124.331 100.788 L 97.0441 75.6966 L 97.0441 110.047 Z M 129.331 110.551 L 137.784 110.551 L 137.784 72.5017 L 100.956 72.5017 L 129.331 98.5928 L 129.331 110.551 Z M 100.889 67.5018 L 124.331 45.6362 L 124.331 67.5015 L 100.889 67.5018 Z" stroke-linecap="round" />
</g>
</g>
</g>
</svg>